HIERARCHY
ROOT Hips
{
	OFFSET -3.958830 18.904000 13.208200
	CHANNELS 6 Xposition Yposition Zposition Zrotation Yrotation Xrotation 
	JOINT LHipJoint
	{
		OFFSET 0.000000 0.000000 0.000000
		CHANNELS 3 Zrotation Yrotation Xrotation
		JOINT LeftUpLeg
		{
			OFFSET 1.800000 -1.400000 0.085000
			CHANNELS 3 Zrotation Yrotation Xrotation
			JOINT LeftLeg
			{
				OFFSET 2.215000 -6.000000 0.000000
				CHANNELS 3 Zrotation Yrotation Xrotation
				JOINT LeftFoot
				{
					OFFSET 2.500000 -6.900000 0.000000
					CHANNELS 3 Zrotation Yrotation Xrotation
					JOINT LeftToeBase
					{
						OFFSET 0.200000 -0.500000 1.950000
						CHANNELS 3 Zrotation Yrotation Xrotation
						End Site
						{
							OFFSET 0.000000 0.000000 0.000000
						}
					}
				}
			}
		}
	}
	JOINT RHipJoint
	{
		OFFSET 0.000000 0.000000 0.000000
		CHANNELS 3 Zrotation Yrotation Xrotation
		JOINT RightUpLeg
		{
			OFFSET -1.800000 -1.400000 0.085000
			CHANNELS 3 Zrotation Yrotation Xrotation
			JOINT RightLeg
			{
				OFFSET -2.215000 -6.000000 0.000000
				CHANNELS 3 Zrotation Yrotation Xrotation
				JOINT RightFoot
				{
					OFFSET -2.500000 -6.900000 0.000000
					CHANNELS 3 Zrotation Yrotation Xrotation
					JOINT RightToeBase
					{
						OFFSET -0.200000 -0.500000 1.950000
						CHANNELS 3 Zrotation Yrotation Xrotation
						End Site
						{
							OFFSET 0.000000 0.000000 0.000000
						}
					}
				}
			}
		}
	}
	JOINT LowerBack
	{
		OFFSET 0.000000 0.000000 0.000000
		CHANNELS 3 Zrotation Yrotation Xrotation
		JOINT Spine
		{
			OFFSET -0.087000 1.940000 -0.288900
			CHANNELS 3 Zrotation Yrotation Xrotation
			JOINT Spine1
			{
				OFFSET 0.000000 1.950000 0.060000
				CHANNELS 3 Zrotation Yrotation Xrotation
				JOINT Neck
				{
					OFFSET 0.000000 0.000000 0.000000
					CHANNELS 3 Zrotation Yrotation Xrotation
					JOINT Neck1
					{
						OFFSET 0.000000 1.600000 0.340000
						CHANNELS 3 Zrotation Yrotation Xrotation
						JOINT Head
						{
							OFFSET 0.000000 1.667000 -0.240000
							CHANNELS 3 Zrotation Yrotation Xrotation
							End Site
							{
								OFFSET 0.000000 0.000000 0.000000
							}
						}
					}
				}
				JOINT LeftShoulder
				{
					OFFSET 0.000000 0.000000 0.000000
					CHANNELS 3 Zrotation Yrotation Xrotation
					JOINT LeftArm
					{
						OFFSET 2.700000 1.550000 -0.730000
						CHANNELS 3 Zrotation Yrotation Xrotation
						JOINT LeftForeArm
						{
							OFFSET 5.450000 0.000000 0.000000
							CHANNELS 3 Zrotation Yrotation Xrotation
							JOINT LeftHand
							{
								OFFSET 3.450000 0.000000 0.000000
								CHANNELS 3 Zrotation Yrotation Xrotation
								JOINT LeftHandIndex1
								{
									OFFSET 0.750000 0.000000 0.000000
									CHANNELS 3 Zrotation Yrotation Xrotation
									End Site
									{
										OFFSET 0.000000 0.000000 0.000000
									}
								}
							}
						}
					}
				}
				JOINT RightShoulder
				{
					OFFSET 0.000000 0.000000 0.000000
					CHANNELS 3 Zrotation Yrotation Xrotation
					JOINT RightArm
					{
						OFFSET -2.700000 1.550000 -0.730000
						CHANNELS 3 Zrotation Yrotation Xrotation
						JOINT RightForeArm
						{
							OFFSET -5.450000 0.000000 0.000000
							CHANNELS 3 Zrotation Yrotation Xrotation
							JOINT RightHand
							{
								OFFSET -3.450000 0.000000 0.000000
								CHANNELS 3 Zrotation Yrotation Xrotation
								JOINT RightHandIndex1
								{
									OFFSET -0.750000 0.000000 0.000000
									CHANNELS 3 Zrotation Yrotation Xrotation
									End Site
									{
										OFFSET 0.000000 0.000000 0.000000
									}
								}
							}
						}
					}
				}
			}
		}
	}
}
MOTION
Frames: 13
Frame Time: 0.016667
-0.330910 16.183930 -0.493690 -3.643742 -2.682509 0.549024 -16.617611 10.269846 8.953627 46.753050 -8.488745 -8.243430 -52.727725 0.460805 -16.259672 0.890766 10.749951 1.249127 0.304380 -0.170180 0.276420 17.846538 -8.421236 -0.891467 -21.033432 -5.727663 -17.406876 -13.810787 -4.134564 31.725581 -0.119913 -5.502399 2.555515 0.237030 0.918890 0.516530 -1.120864 -5.564121 -8.552899 1.109365 -2.110710 7.996253 5.597820 -2.283594 18.121441 -3.069217 7.224995 -10.844703 7.818511 -8.987327 24.744166 -7.517850 3.130430 3.773780 5.880278 -3.282518 13.218232 -92.644032 -78.543752 80.948755 106.368300 -63.998454 -79.549265 -4.983199 1.276458 0.017930 0.944270 -0.603030 0.274440 -1.514171 -8.989542 0.260635 63.936643 -9.603288 -13.434905 -70.917894 46.351398 -26.287759 1.344958 -2.081725 -0.401280 0.182680 0.102140 -0.261290 
-0.165270 16.187010 -0.439350 -2.922422 -5.078644 -0.516368 -16.422258 10.394736 8.508881 44.522259 -7.041862 -7.722477 -54.385489 2.945927 -12.851168 0.973826 10.781383 1.251163 0.268940 -0.233170 0.281760 17.906366 -8.811762 -0.612627 -20.083775 -5.012729 -19.155130 -15.919635 -3.273627 33.948853 -0.197878 -5.721722 2.488805 0.149410 0.868120 0.495100 -1.470898 -4.747003 -8.648209 1.135242 -1.311042 9.258815 5.293663 -1.092230 16.250351 -2.940177 6.994039 -11.380186 7.365751 -7.989792 27.183561 -7.170060 4.274250 4.635450 4.292953 -1.957126 12.829956 -72.919896 -77.858898 66.322283 113.742058 -65.858179 -97.936882 -4.855607 2.225402 0.080160 0.876450 -0.556900 0.266910 0.645272 -8.616227 0.507967 64.278130 -9.143168 -14.006960 -68.647890 47.723920 -26.437877 1.337710 -1.934321 -0.390750 0.156070 0.085500 -0.267840 
0.000720 16.193990 -0.399000 -2.455790 -7.717907 -1.824858 -16.321535 10.702106 8.111019 42.977767 -5.697329 -7.246231 -55.864615 5.619746 -9.340299 1.023030 10.862844 1.204458 0.303840 -0.210000 0.322820 17.918270 -8.949007 -0.370578 -18.656601 -4.116081 -20.874365 -17.773213 -2.332071 36.976338 -0.311467 -6.034957 2.368670 0.129240 0.781740 0.469570 -1.607636 -4.689272 -8.683508 1.407775 -1.602830 10.559715 4.810789 -1.030127 13.690984 -3.326129 6.451304 -10.163891 5.909808 -6.328182 29.764920 -6.558400 5.390050 4.305240 4.493193 -3.390772 7.848900 -57.101446 -69.354697 49.471523 124.068333 -69.211386 -118.164699 -4.208418 3.636399 0.154280 0.788230 -0.495770 0.266210 1.496068 -6.107160 2.028827 62.855672 -7.780693 -14.186500 -65.108182 50.453708 -26.506388 1.293555 -1.804506 -0.375130 0.128390 0.044610 -0.285090 
0.167720 16.213820 -0.375660 -2.104118 -9.276717 -3.634319 -16.219763 11.096893 7.634532 41.714869 -4.505249 -7.880508 -56.475478 9.414639 -4.029088 1.122450 11.028697 1.129169 0.331820 -0.173250 0.365930 17.926637 -9.087595 -0.132131 -17.208824 -3.268492 -21.851056 -18.925521 -1.643201 40.355401 -0.451576 -6.440025 2.234273 0.095170 0.697840 0.470760 -1.729751 -4.737278 -8.641217 2.119117 -2.007287 12.326790 4.211479 -1.108272 11.638864 -3.423798 6.031334 -8.550184 4.664301 -5.303849 31.465861 -6.866200 6.617390 3.871730 3.826510 -5.658624 2.821481 -48.079810 -60.123068 37.817309 143.220338 -72.430311 -140.781944 -3.815336 3.805560 0.182260 0.722520 -0.420650 0.264250 2.360318 -3.213596 3.810249 61.210376 -6.782771 -14.884227 -62.778820 53.516687 -27.362427 1.234795 -1.658115 -0.317270 0.087000 -0.002830 -0.280490 
0.345640 16.244450 -0.349360 -2.411692 -9.781755 -5.227055 -16.003473 11.345649 7.082338 40.241706 -3.653774 -9.080947 -55.349597 13.461058 2.086232 1.139067 11.213006 1.026570 0.352490 -0.158550 0.392940 18.047319 -9.321102 0.166946 -15.788916 -2.441940 -22.947977 -18.625686 -1.756268 44.915727 -0.618958 -7.015628 2.027208 0.069530 0.629320 0.468740 -2.186160 -4.361254 -8.562324 4.848085 -2.887289 13.887458 2.842680 -1.722686 10.421468 -3.514553 4.974709 -7.747242 2.686769 -3.631895 33.384272 -6.774980 7.450070 3.069410 2.584952 -7.532652 -0.166726 -40.425286 -53.119018 29.671096 161.856173 -72.775934 -161.689410 -3.802305 3.611929 0.239850 0.652720 -0.362170 0.249280 3.757477 -0.563023 4.954069 59.181093 -5.095701 -15.372695 -61.614677 55.573812 -28.543713 1.188605 -1.500265 -0.287670 0.067310 -0.011860 -0.289560 
0.510290 16.269860 -0.305790 -2.132911 -10.090178 -6.295507 -15.797689 11.551313 6.490955 37.774649 -3.095670 -10.066163 -53.122095 17.041200 8.021176 1.153900 11.347905 0.955399 0.366170 -0.157060 0.405110 18.157000 -9.561410 0.493007 -15.004565 -1.601358 -24.185066 -17.682265 -2.266162 49.177811 -0.765104 -7.604060 1.818429 0.047040 0.588790 0.485070 -2.612150 -3.879026 -8.445479 6.686480 -3.543491 14.119564 1.811349 -2.401098 9.823931 -3.464879 4.067726 -7.537082 1.271154 -1.793897 35.419617 -6.850140 8.618080 3.392990 1.852487 -8.133176 -1.164253 -33.280160 -48.108797 23.541730 173.892303 -72.369267 -175.672937 -3.876463 3.563611 0.268410 0.617660 -0.329040 0.244990 4.480954 0.876563 5.252882 57.345231 -2.294671 -14.799027 -59.971406 57.003362 -28.938855 1.176220 -1.416768 -0.260030 0.029020 -0.019970 -0.292780 
0.661010 16.273930 -0.251350 -1.660635 -10.981965 -6.801054 -15.585218 11.694905 5.846689 34.714980 -2.438101 -10.867166 -49.462306 20.382203 14.279795 1.231501 11.426822 0.940440 0.407110 -0.080180 0.399480 18.285906 -9.776933 0.899084 -14.428694 -0.428273 -25.993879 -16.153571 -3.019557 53.151174 -0.898698 -8.163987 1.641317 0.060680 0.574010 0.485380 -3.082602 -3.250033 -8.297758 8.787762 -3.618628 13.495104 0.387382 -2.598313 9.651182 -3.479084 3.171410 -7.597256 0.182521 -0.461351 36.337482 -6.345180 9.151870 4.303190 2.467248 -7.577262 -1.179094 -28.413958 -44.780993 19.966268 179.341278 -71.408296 177.835257 -3.891321 3.623431 0.224121 0.600690 -0.305620 0.287440 3.883681 1.257579 5.113074 56.656922 0.593808 -13.719384 -57.409691 58.328750 -28.576278 1.203634 -1.420039 -0.205530 0.002670 -0.076920 -0.246410 
0.789440 16.296440 -0.204400 -1.612544 -11.678604 -7.927714 -15.422664 11.850068 5.336913 32.252741 -2.206969 -11.465503 -44.369344 23.062709 21.084177 1.265142 11.643900 0.871986 0.390430 -0.095740 0.385480 18.378518 -9.971380 1.206974 -13.576913 0.563813 -26.216299 -13.590346 -4.505311 56.225233 -0.991484 -8.608897 1.519576 0.035210 0.573240 0.481740 -3.430132 -2.757619 -8.185454 10.552220 -3.750216 13.299149 -0.650069 -2.823807 10.308621 -3.280605 2.725823 -8.053895 -0.332758 0.430179 38.148069 -6.681950 9.985190 5.405380 3.072478 -8.219488 -0.735397 -23.873104 -41.632252 16.505914 -176.979954 -70.811500 173.081712 -3.924933 3.620366 0.217320 0.600600 -0.304180 0.290120 2.881612 2.467216 5.369817 56.639102 3.836115 -12.975353 -55.320001 59.289041 -28.687667 1.223505 -1.384558 -0.195050 -0.008590 -0.079850 -0.238490 
0.900610 16.325390 -0.170290 -1.187522 -12.766451 -9.933064 -15.279201 12.087488 4.812707 29.211483 -2.241594 -11.083775 -37.450786 24.705447 28.691687 1.218987 11.867287 0.764984 0.439550 -0.038000 0.427430 18.438331 -10.188299 1.492347 -12.908633 1.544501 -25.603602 -10.902851 -6.001381 58.454224 -1.108881 -8.927244 1.420321 0.069830 0.506360 0.442400 -3.688134 -2.385748 -8.075715 11.514907 -3.628284 14.129855 -1.403446 -2.816214 11.674232 -3.274748 2.094667 -8.440398 -1.394603 1.469944 40.691608 -6.704520 10.222710 3.663170 3.392535 -9.286010 -0.333044 -17.955611 -38.807709 12.832207 179.327199 -71.040776 178.419009 -3.911589 3.589726 0.292440 0.532570 -0.253890 0.285900 2.549848 4.333092 5.628914 55.252116 7.309084 -12.166886 -55.461556 59.586733 -29.806699 1.222376 -1.284061 -0.209110 0.024170 -0.099680 -0.264090 
0.997710 16.344470 -0.130640 -1.246251 -13.448731 -11.726951 -15.119875 12.337980 4.230536 26.089027 -2.315577 -10.473825 -28.396883 24.420104 36.496712 1.141849 11.942776 0.704766 0.509700 0.048190 0.474110 18.515110 -10.439968 1.783811 -12.234096 2.431978 -24.402801 -7.210438 -8.128637 59.565843 -1.219105 -9.169288 1.352160 0.112950 0.445950 0.409710 -3.999990 -1.956890 -7.914588 13.179202 -3.530924 14.673650 -2.071373 -2.943836 13.178470 -3.308760 1.481370 -8.780764 -2.369250 2.507970 43.493770 -6.077960 9.968610 1.704770 4.408278 -9.894886 0.185569 -12.238739 -35.838699 9.756597 173.873721 -71.934017 -174.012620 -3.881017 3.566548 0.352870 0.463720 -0.198940 0.293120 1.659444 5.680804 5.669731 53.006696 11.035840 -10.933488 -55.344350 59.696338 -30.517473 1.228806 -1.204732 -0.202750 0.062320 -0.130430 -0.274040 
1.083250 16.374090 -0.098120 -0.937293 -14.399141 -13.786464 -14.982794 12.688703 3.597232 22.280666 -2.307288 -8.734303 -19.429308 22.447433 43.240772 1.052903 11.764209 0.732031 0.615110 0.168180 0.586190 18.556681 -10.753115 2.079314 -11.533274 3.284399 -23.036460 -4.527665 -9.468519 60.023377 -1.345868 -9.309015 1.306587 0.162130 0.331630 0.394770 -4.214225 -1.576983 -7.729308 14.016202 -3.183149 15.544073 -2.753506 -2.908045 14.879745 -2.839353 1.311603 -9.143731 -2.450934 3.118940 47.026212 -7.074520 10.568280 -1.292840 5.022112 -11.294161 0.530943 -6.459544 -32.686991 6.437733 168.780435 -75.558019 -167.578519 -3.796257 3.531364 0.431370 0.377380 -0.095470 0.297530 0.301547 7.625550 5.954837 51.091845 15.441179 -9.367485 -55.193767 57.588138 -30.386546 1.293624 -1.205381 -0.175380 0.077660 -0.199190 -0.300110 
1.149980 16.381220 -0.078560 -0.393158 -14.389940 -15.089669 -14.904428 12.991032 2.993243 17.955494 -2.291416 -7.744325 -10.582824 19.267051 49.484483 0.933571 11.489340 0.811290 0.666720 0.235400 0.648140 18.571419 -10.957329 2.433970 -11.889645 4.092442 -22.827044 -0.936778 -11.667061 60.659616 -1.473869 -9.662496 1.183167 0.203630 0.291070 0.396850 -4.322380 -1.297397 -7.584687 13.535209 -2.508248 15.961021 -2.567311 -2.827989 15.959396 -2.543196 1.857245 -9.060486 -0.692840 3.025870 49.156200 -8.048860 11.243480 -3.497070 6.839055 -11.104117 0.500526 -1.549196 -30.666863 5.044520 156.057715 -78.354751 -152.829825 -3.804819 3.515862 0.475790 0.351160 -0.037800 0.298700 -1.774835 7.597318 5.669597 50.124615 20.195229 -6.796177 -55.205081 55.170535 -29.905647 1.335683 -1.234463 -0.176420 0.109050 -0.223960 -0.316480 
1.203950 16.376390 -0.050600 0.046705 -14.151539 -15.374825 -14.865922 13.150095 2.549886 14.268428 -2.067384 -7.291046 -3.992991 15.923980 52.810298 0.773758 11.119960 0.933981 0.643110 0.181620 0.646170 18.589222 -10.997891 2.805823 -12.484923 5.016450 -23.625575 2.848573 -14.026835 60.958820 -1.550179 -10.092015 1.043530 0.200610 0.320800 0.405060 -4.404025 -1.095159 -7.503725 13.033694 -1.892680 15.436685 -2.125066 -2.851737 16.424201 -2.364477 1.935357 -9.052021 0.210073 2.770678 50.241435 -8.689330 11.121210 -3.049970 8.213988 -10.142179 0.955746 3.130158 -28.975172 5.665615 131.351029 -78.282935 -124.785632 -3.955757 3.237641 0.490640 0.379460 -0.069470 0.277290 -3.176621 7.105590 5.180001 48.305771 24.008336 -4.157600 -54.215743 53.699266 -28.754850 1.324418 -1.259234 -0.213160 0.127850 -0.179860 -0.343040 
